<svg xmlns="http://www.w3.org/2000/svg" width="77" height="72" fill="none" viewBox="0 0 77 72"><path fill="#83b3d3" d="M31.12 65h16.06V41.2H31.12zm2.91-20.9h10.14v18H34.03z"/><path fill="#83b3d3" d="m74.4 39.3 2.1-2.1-9.94-9.9V0H52.6v13.6L38.95 0 1.5 37.2l2.1 2.1 7.84-7.8v37.6H7.42V72h64.16v-2.9h-5.12V31.5zM63.54 69.1h-49.2V28.5l24.6-24.4 24.6 24.4zm0-44.7-7.93-7.9V2.9h7.93z"/><path fill="#83b3d3" d="M31.32 27.1c0 4.3 3.51 7.7 7.73 7.7a7.8 7.8 0 0 0 7.83-7.7c0-4.3-3.51-7.7-7.83-7.7a7.7 7.7 0 0 0-7.73 7.7m7.83-5a5 5 0 0 1 5.02 4.9c0 2.7-2.2 4.9-5.02 4.9a5 5 0 0 1-5.02-4.9c0-2.7 2.2-4.9 5.02-4.9M21.48 41.2h-3.01v3.9h3.01zM27.4 41.2h-3v3.9h3zM21.48 47.2h-3.01v3.9h3.01zM27.4 47.2h-3v3.9h3zM53.5 41.2h-3v3.9h3zM59.43 41.2h-3.01v3.9h3.01zM53.5 47.2h-3v3.9h3zM59.43 47.2h-3.01v3.9h3.01z"/></svg>